HIERARCHY
ROOT Hips
{
 OFFSET 0.000000 0.000000 0.000000
 CHANNELS 6 Xposition Yposition Zposition Yrotation Xrotation Zrotation
 JOINT Chest
 {
  OFFSET 0.000000 9.585900 0.002600
  CHANNELS 3 Yrotation Xrotation Zrotation
  JOINT Chest2
  {
   OFFSET 0.000000 9.601200 -0.005300
   CHANNELS 3 Yrotation Xrotation Zrotation
   JOINT Chest3
   {
    OFFSET 0.000000 9.561800 0.000000
    CHANNELS 3 Yrotation Xrotation Zrotation
    JOINT Chest4
    {
     OFFSET 0.000000 9.552100 0.000000
     CHANNELS 3 Yrotation Xrotation Zrotation
     JOINT Neck
     {
      OFFSET 0.000000 14.453000 0.000000
      CHANNELS 3 Yrotation Xrotation Zrotation
      JOINT Head
      {
       OFFSET 0.000000 8.936500 -0.011300
       CHANNELS 3 Yrotation Xrotation Zrotation
       End Site
       {
        OFFSET 0.000000 17.073600 -0.006000
       }
      }
     }
     JOINT RightCollar
     {
      OFFSET -2.921100 9.558500 0.000000
      CHANNELS 3 Yrotation Xrotation Zrotation
      JOINT RightShoulder
      {
       OFFSET -13.519700 0.000000 0.000000
       CHANNELS 3 Yrotation Xrotation Zrotation
       JOINT RightElbow
       {
        OFFSET 0.000000 -29.696600 0.000000
        CHANNELS 3 Yrotation Xrotation Zrotation
        JOINT RightWrist
        {
         OFFSET 0.000000 -24.004700 0.000000
         CHANNELS 3 Yrotation Xrotation Zrotation
         End Site
         {
          OFFSET 0.000000 -17.728500 0.000000
         }
        }
       }
      }
     }
     JOINT LeftCollar
     {
      OFFSET 2.921100 9.558500 0.000000
      CHANNELS 3 Yrotation Xrotation Zrotation
      JOINT LeftShoulder
      {
       OFFSET 13.519700 0.000000 0.000000
       CHANNELS 3 Yrotation Xrotation Zrotation
       JOINT LeftElbow
       {
        OFFSET 0.000000 -29.696600 0.000000
        CHANNELS 3 Yrotation Xrotation Zrotation
        JOINT LeftWrist
        {
         OFFSET 0.000000 -24.004700 0.000000
         CHANNELS 3 Yrotation Xrotation Zrotation
         End Site
         {
          OFFSET 0.000000 -17.728500 0.000000
         }
        }
       }
      }
     }
    }
   }
  }
 }
 JOINT RightHip
 {
  OFFSET -7.771700 -0.012900 -0.001300
  CHANNELS 3 Yrotation Xrotation Zrotation
  JOINT RightKnee
  {
   OFFSET 0.000000 -40.869800 0.001200
   CHANNELS 3 Yrotation Xrotation Zrotation
   JOINT RightAnkle
   {
    OFFSET 0.000000 -39.717900 0.002100
    CHANNELS 3 Yrotation Xrotation Zrotation
    JOINT RightToe
    {
     OFFSET 0.000000 -4.965400 11.033500
     CHANNELS 3 Yrotation Xrotation Zrotation
     End Site
     {
      OFFSET 0.000000 -1.423100 5.872300
     }
    }
   }
  }
 }
 JOINT LeftHip
 {
  OFFSET 7.771700 -0.012900 -0.001300
  CHANNELS 3 Yrotation Xrotation Zrotation
  JOINT LeftKnee
  {
   OFFSET 0.000000 -40.869800 0.001200
   CHANNELS 3 Yrotation Xrotation Zrotation
   JOINT LeftAnkle
   {
    OFFSET 0.000000 -39.717900 0.002100
    CHANNELS 3 Yrotation Xrotation Zrotation
    JOINT LeftToe
    {
     OFFSET 0.000000 -4.965400 11.033500
     CHANNELS 3 Yrotation Xrotation Zrotation
     End Site
     {
      OFFSET 0.000000 -1.423100 5.872300
     }
    }
   }
  }
 }
}
MOTION
Frames: 9
Frame Time: 0.008333
0.000000 85.388000 0.000000 0.000000 -5.767877 0.000000 0.000000 11.653817 0.000000 0.000000 -5.885947 0.000000 0.000000 -0.000000 0.000000 0.000000 -0.000000 0.000000 0.000000 12.528835 0.000000 0.000000 0.711642 0.000000 0.000000 -0.000000 0.000000 0.000000 0.000000 -90.000000 0.000000 -2.309062 0.000000 0.000000 2.309062 0.000000 0.000000 -0.000000 0.000000 0.000000 -0.000000 90.000000 0.000000 -2.309062 0.000000 0.000000 2.309062 0.000000 0.000000 8.520406 0.000000 0.000000 1.905762 0.000000 -0.000000 -4.658285 0.000000 0.000000 -0.000000 0.000000 0.000000 8.520406 0.000000 0.000000 1.905762 0.000000 -0.000000 -4.658285 0.000000 0.000000 -0.000000 0.000000
-67.581711 63.149906 12.328403 164.297457 -52.777988 -3.000498 7.327278 24.459226 7.707812 1.025906 4.022732 0.824557 1.702504 6.460163 1.375124 6.157113 20.175976 5.203397 8.237321 20.765701 1.989354 14.384760 2.918638 1.242163 2.870715 5.816845 6.303593 4.231650 -11.393218 -19.208426 -104.542748 -63.347333 141.068756 18.914113 1.523451 1.482651 -12.977201 -1.783414 5.780418 -17.983945 -39.473276 54.038555 -0.493985 -27.952032 18.771728 8.482866 0.606207 -1.849910 -4.918656 -7.460330 9.812923 -25.640782 74.269819 -23.118402 1.376948 -13.290641 -2.525549 -0.509797 0.968322 -0.267732 -2.668814 -14.399497 1.008350 13.697678 62.547408 7.130298 -2.364609 -4.692646 1.133247 -0.358388 -0.996127 -0.204005
-67.579333 63.144047 12.328468 164.276319 -52.753278 -2.988115 7.361945 24.469100 7.726468 1.061563 4.067910 0.849577 1.693535 6.426007 1.376779 6.164995 20.174380 5.208128 8.191291 20.707402 1.978919 14.305878 2.800045 1.236992 2.805624 5.763697 6.308724 4.187319 -11.453849 -19.163517 -104.480359 -63.303927 141.045287 18.954767 1.541456 1.507464 -13.021842 -1.845795 5.877171 -18.028921 -39.739161 54.268816 -0.398904 -27.796923 18.767539 8.420470 0.651268 -1.936318 -4.912255 -7.489720 9.817255 -25.642970 74.278419 -23.118605 1.382887 -13.294459 -2.527769 -0.514209 0.972257 -0.267346 -2.660325 -14.433182 1.015300 13.732914 62.558915 7.163731 -2.371386 -4.701501 1.132689 -0.358812 -0.973770 -0.197316
-67.577027 63.137544 12.329324 164.253107 -52.724122 -2.970204 7.380831 24.476215 7.727709 1.067354 4.060633 0.850616 1.721087 6.442395 1.391292 6.148128 20.150844 5.201362 8.172244 20.680623 1.973867 14.248341 2.687696 1.242551 2.777284 5.734714 6.327124 4.157167 -11.504357 -19.137623 -104.434927 -63.254212 141.046656 18.981525 1.537298 1.520834 -13.035229 -1.859348 5.959148 -18.027773 -40.026698 54.471874 -0.375693 -27.682928 18.788558 8.349784 0.700096 -2.018679 -4.902595 -7.525568 9.821748 -25.639216 74.292484 -23.108509 1.364658 -13.303107 -2.539274 -0.500136 0.980173 -0.254679 -2.649491 -14.469339 1.019881 13.751052 62.567098 7.181448 -2.376067 -4.716677 1.130692 -0.355939 -0.941463 -0.188816
-67.574435 63.132521 12.330162 164.223836 -52.704748 -2.943506 7.388631 24.494309 7.718352 1.078684 4.033759 0.850137 1.729779 6.475324 1.394748 6.152994 20.129883 5.202010 8.157420 20.647149 1.977787 14.199538 2.607456 1.250088 2.751679 5.693105 6.366899 4.133286 -11.564805 -19.124415 -104.335761 -63.210660 141.014052 19.002439 1.525227 1.534081 -13.043180 -1.851836 6.023049 -18.000461 -40.316562 54.654940 -0.408917 -27.607146 18.844233 8.279896 0.749777 -2.093313 -4.886826 -7.550462 9.822740 -25.597599 74.306863 -23.064778 1.340800 -13.311658 -2.546684 -0.488623 0.988800 -0.245051 -2.636526 -14.492249 1.024406 13.764957 62.571309 7.188136 -2.384394 -4.731953 1.128790 -0.356318 -0.916090 -0.182332
-67.570397 63.128721 12.332281 164.192755 -52.691228 -2.919733 7.400323 24.498948 7.714767 1.078418 4.054949 0.852026 1.706830 6.520432 1.392393 6.179210 20.092727 5.193985 8.138622 20.600938 1.976046 14.183266 2.557788 1.246058 2.736911 5.620305 6.418210 4.123379 -11.637334 -19.122895 -104.192830 -63.178759 140.951789 19.013855 1.507001 1.542343 -13.034789 -1.861164 6.069940 -17.961316 -40.584227 54.822133 -0.472003 -27.566020 18.924693 8.213520 0.798477 -2.154484 -4.870911 -7.568802 9.828452 -25.582416 74.314763 -23.047637 1.330025 -13.312561 -2.553038 -0.476003 0.995664 -0.234698 -2.628417 -14.506118 1.038365 13.794839 62.572797 7.202296 -2.405585 -4.754718 1.121432 -0.355536 -0.886763 -0.172003
-67.565508 63.125670 12.336336 164.164824 -52.678864 -2.900447 7.407376 24.504573 7.710981 1.067399 4.075022 0.850020 1.716701 6.504475 1.391572 6.126929 20.174541 5.177270 8.169644 20.512735 1.963617 14.200347 2.540744 1.228412 2.798338 5.509190 6.422497 4.123650 -11.664429 -19.118098 -104.189881 -63.103995 141.002535 19.016523 1.486605 1.547234 -12.964207 -1.926340 6.117715 -17.921582 -40.815418 54.973794 -0.540313 -27.553179 19.020739 8.151636 0.845744 -2.204161 -4.863542 -7.584599 9.843630 -25.530790 74.315556 -23.014422 1.324225 -13.297864 -2.551607 -0.487102 0.991356 -0.231273 -2.624711 -14.517970 1.054069 13.816201 62.568906 7.207892 -2.418871 -4.768534 1.118394 -0.350080 -0.864479 -0.168037
-67.563248 63.120678 12.343511 164.140572 -52.647499 -2.868429 7.359575 24.540915 7.663281 1.097943 4.054416 0.855583 1.728924 6.488446 1.388381 6.096056 20.207157 5.154103 8.130942 20.520222 1.975879 14.181866 2.482011 1.231406 2.837605 5.437169 6.432060 4.125307 -11.686325 -19.104789 -104.211256 -63.036425 141.082139 19.011371 1.472084 1.552403 -12.920194 -1.943314 6.164346 -17.889589 -41.012676 55.115282 -0.599090 -27.559169 19.127466 8.101279 0.889684 -2.244603 -4.863920 -7.621658 9.851068 -25.547088 74.309126 -23.052966 1.309465 -13.291204 -2.550048 -0.473368 0.993954 -0.224666 -2.621006 -14.546175 1.051832 13.824560 62.548415 7.204091 -2.430658 -4.774601 1.109870 -0.332713 -0.839341 -0.161383
-67.558036 63.118641 12.351881 164.100893 -52.632841 -2.838286 7.355051 24.546886 7.641624 1.092247 4.068618 0.854768 1.697950 6.528403 1.367310 6.125410 20.185110 5.137706 8.104650 20.525954 1.984578 14.153190 2.467548 1.248591 2.876453 5.363553 6.442368 4.176675 -11.812559 -19.063956 -104.064845 -63.035437 140.964549 19.003044 1.466215 1.557377 -12.880085 -1.946785 6.216813 -17.870121 -41.182951 55.252444 -0.648262 -27.578269 19.240205 8.073211 0.925091 -2.274162 -4.862962 -7.636993 9.874571 -25.572329 74.293914 -23.108160 1.308706 -13.283666 -2.552424 -0.470456 0.997647 -0.216596 -2.604462 -14.558315 1.058827 13.816718 62.535854 7.192559 -2.406393 -4.782569 1.102684 -0.346758 -0.822285 -0.159383
